<svg width="30" height="29" viewBox="0 0 30 29" fill="none" xmlns="http://www.w3.org/2000/svg">
<path d="M20.5537 0C21.1712 8.55565e-05 21.6718 0.500623 21.6719 1.11816V2.86719H25.6514C28.0286 2.86719 29.956 4.79463 29.9561 7.17188V24.6953C29.9561 27.0726 28.0286 29 25.6514 29H4.30469C1.92748 28.9999 0 27.0725 0 24.6953V7.17188C5.12845e-05 4.79469 1.92752 2.86729 4.30469 2.86719H7.96484V1.11816C7.9649 0.500791 8.46571 0.000356916 9.08301 0C9.70061 0 10.2021 0.50057 10.2021 1.11816V2.86719H19.4355V1.11816C19.4356 0.500631 19.9362 9.78051e-05 20.5537 0ZM2.23633 24.6953C2.23633 25.8373 3.16276 26.7636 4.30469 26.7637H25.6514C26.7934 26.7637 27.7188 25.8373 27.7188 24.6953V11.7949H2.23633V24.6953ZM4.30469 5.10449C3.16279 5.10459 2.23638 6.02997 2.23633 7.17188V9.55859H27.7188V7.17188C27.7187 6.02991 26.7933 5.1045 25.6514 5.10449H21.6719V7.17188C21.6718 7.78943 21.1713 8.28995 20.5537 8.29004C19.9362 8.28994 19.4356 7.78942 19.4355 7.17188V5.10449H10.2021V7.17188C10.2021 7.78948 9.70062 8.29004 9.08301 8.29004C8.4657 8.28968 7.96488 7.78926 7.96484 7.17188V5.10449H4.30469Z" fill="#D9BEF6"/>
</svg>
