<svg width="80" height="80" viewBox="0 0 80 80" fill="none" xmlns="http://www.w3.org/2000/svg">
<path d="M70 8H58V2C58 1.46957 57.7893 0.96086 57.4142 0.585787C57.0391 0.210714 56.5304 0 56 0C55.4696 0 54.9609 0.210714 54.5858 0.585787C54.2107 0.96086 54 1.46957 54 2V8H26V2C26 1.46957 25.7893 0.96086 25.4142 0.585787C25.0391 0.210714 24.5304 0 24 0C23.4696 0 22.9609 0.210714 22.5858 0.585787C22.2107 0.96086 22 1.46957 22 2V8H10C7.34881 8.00318 4.80712 9.05776 2.93244 10.9324C1.05776 12.8071 0.00317572 15.3488 0 18V70C0.00317572 72.6512 1.05776 75.1929 2.93244 77.0676C4.80712 78.9422 7.34881 79.9968 10 80H70C72.6522 80 75.1957 78.9464 77.0711 77.0711C78.9464 75.1957 80 72.6522 80 70V18C80 15.3478 78.9464 12.8043 77.0711 10.9289C75.1957 9.05357 72.6522 8 70 8ZM76 70C76 71.5913 75.3679 73.1174 74.2426 74.2426C73.1174 75.3679 71.5913 76 70 76H10C8.4087 76 6.88258 75.3679 5.75736 74.2426C4.63214 73.1174 4 71.5913 4 70V36H76V70ZM76 32H4V18C4 14.688 6.68 12 10 12H22V18C22 18.5304 22.2107 19.0391 22.5858 19.4142C22.9609 19.7893 23.4696 20 24 20C24.5304 20 25.0391 19.7893 25.4142 19.4142C25.7893 19.0391 26 18.5304 26 18V12H54V18C54 18.5304 54.2107 19.0391 54.5858 19.4142C54.9609 19.7893 55.4696 20 56 20C56.5304 20 57.0391 19.7893 57.4142 19.4142C57.7893 19.0391 58 18.5304 58 18V12H70C71.5913 12 73.1174 12.6321 74.2426 13.7574C75.3679 14.8826 76 16.4087 76 18V32Z" fill="#D9BEF6"/>
</svg>
