<svg width="18" height="18" viewBox="0 0 18 18" fill="none" xmlns="http://www.w3.org/2000/svg">
<path d="M15.6648 10.9612V14.6041C15.6648 15.9453 14.5775 17.0326 13.2362 17.0326H2.91489C1.57363 17.0326 0.486328 15.9453 0.486328 14.6041V4.88982C0.486328 3.54857 1.57363 2.46127 2.91488 2.46127H5.95058M5.7124 8.53266L4.7363 12.1755L8.37914 11.1994M5.7124 8.53266L8.37914 11.1994M5.7124 8.53266L12.7247 1.71152M8.37914 11.1994L15.2958 4.28269M15.2958 4.28269L16.2176 3.36097C16.7075 2.87102 16.6888 2.0711 16.1765 1.60456L15.2955 0.802261C14.8208 0.369923 14.0915 0.381919 13.6313 0.829637L12.7247 1.71152M15.2958 4.28269L12.7247 1.71152" stroke="#6F6B7F" stroke-width="0.971422" stroke-linecap="round" stroke-linejoin="round"/>
</svg>
