<svg width="61" height="31" viewBox="0 0 61 31" fill="none" xmlns="http://www.w3.org/2000/svg">
<path d="M1.15625 29.3374L4.78125 25.7124M59.1563 29.3374L55.5313 25.7124M41.6903 11.8715L31.5544 1.73555C30.7822 0.963372 29.5303 0.963372 28.7581 1.73554L18.6222 11.8715M41.6903 11.8715L52.4194 2.40472C52.6195 2.22816 52.9355 2.35021 52.9649 2.61543L55.5313 25.7124M41.6903 11.8715L55.5313 25.7124M18.6222 11.8715L9.18861 2.43794C8.99907 2.2484 8.67459 2.35239 8.63052 2.61679L4.78125 25.7124M18.6222 11.8715L4.78125 25.7124" stroke="#181818" stroke-width="2.3126" stroke-linecap="round"/>
<path d="M49.2344 11.1372L46.0249 15.0344C45.8092 15.2964 45.8277 15.6794 46.0677 15.9194L49.9649 19.8167C50.4001 20.2519 51.1416 19.9059 51.0875 19.2927L50.3997 11.4982C50.3479 10.9106 49.6094 10.6818 49.2344 11.1372Z" stroke="#181818" stroke-width="0.995227"/>
<path d="M11.7363 11.1372L14.9458 15.0344C15.1615 15.2964 15.1431 15.6794 14.903 15.9194L11.0058 19.8167C10.5706 20.2519 9.82914 19.9059 9.88324 19.2927L10.571 11.4982C10.6228 10.9106 11.3613 10.6818 11.7363 11.1372Z" stroke="#181818" stroke-width="0.995227"/>
</svg>
