<svg width="38" height="32" viewBox="0 0 38 32" fill="none" xmlns="http://www.w3.org/2000/svg">
<path d="M24.6797 9.45884C26.4047 9.45884 27.7988 7.62645 27.7988 5.36424C27.7988 3.10202 26.4018 1.27246 24.6797 1.27246C22.9605 1.27246 21.5635 3.10485 21.5635 5.36424C21.5635 7.62645 22.9605 9.45884 24.6797 9.45884ZM12.9897 9.45884C14.709 9.45884 16.1059 7.62645 16.1059 5.36424C16.1059 3.10202 14.7062 1.27246 12.9897 1.27246C11.2733 1.27246 9.87072 3.10485 9.87072 5.36424C9.87072 7.62645 11.2676 9.45884 12.9897 9.45884ZM33.1234 18.2205C34.9332 18.2205 36.398 16.3881 36.398 14.1259C36.398 11.8637 34.9304 10.0341 33.1234 10.0341C31.3165 10.0341 29.8461 11.8665 29.8461 14.1259C29.8461 16.3881 31.3165 18.2205 33.1234 18.2205ZM4.54604 18.2205C6.35581 18.2205 7.82059 16.3881 7.82059 14.1259C7.82059 11.8637 6.35298 10.037 4.54604 10.037C2.73627 10.037 1.27148 11.8694 1.27148 14.1287C1.27148 16.391 2.73627 18.2205 4.54604 18.2205ZM27.0211 24.8149C27.0211 28.5815 22.6013 30.2725 18.8347 30.2725C15.0682 30.2725 10.6484 28.5815 10.6484 24.8149C10.6484 21.0483 13.3772 15.2655 18.8347 15.2655C24.2923 15.2655 27.0211 21.0483 27.0211 24.8149Z" stroke="#181818" stroke-width="2.54475" stroke-linecap="round" stroke-linejoin="round"/>
</svg>
